<svg xmlns="http://www.w3.org/2000/svg" width="13" height="16"><path d="M6.73.203c-1.957 0-3.886 2.137-3.886 5.598 0 2.199.754 3.449 1.21 3.449.188 0 .298-.863.298-1.105 0-.293-.45-.91-.45-2.122 0-2.511 1.164-4.293 2.672-4.293 1.297 0 2.258 1.211 2.258 3.434 0 1.656-.406 4.77-1.723 4.77-.472 0-.879-.563-.879-1.368 0-1.183.504-2.324.504-3.543 0-2.07-1.789-1.695-1.789.805 0 .524.04 1.106.184 1.586-.262 1.856-.8 4.621-.8 6.531 0 .594.05 1.172.085 1.766.066.117.031.105.133.047.96-2.156.926-2.578 1.36-5.403.234.73.84 1.125 1.32 1.125 2.02 0 2.93-3.234 2.93-6.148 0-3.105-1.634-5.129-3.427-5.129zm0 0" id="surface1"/></svg>