<svg xmlns="http://www.w3.org/2000/svg" width="16" height="14"><path d="M12.766 4.148c.007.125.007.25.007.375 0 3.793-2.472 8.16-6.996 8.16-1.394 0-2.687-.468-3.777-1.285.2.028.387.036.594.036 1.148 0 2.207-.454 3.054-1.227-1.082-.027-1.988-.852-2.3-1.988.152.023.304.043.465.043.218 0 .44-.035.648-.098-1.129-.266-1.973-1.422-1.973-2.816v-.035c.328.214.707.347 1.11.363-.66-.516-1.094-1.395-1.094-2.39 0-.532.121-1.02.332-1.446 1.21 1.738 3.031 2.879 5.074 3a3.629 3.629 0 01-.062-.656c0-1.582 1.097-2.868 2.46-2.868.708 0 1.348.344 1.797.907a4.476 4.476 0 001.56-.696c-.185.668-.571 1.227-1.083 1.582A4.384 4.384 0 0014 2.664a5.857 5.857 0 01-1.234 1.484zm0 0" id="surface1"/></svg>