<?xml version="1.0" encoding="UTF-8"?>
<svg xmlns="http://www.w3.org/2000/svg" xmlns:xlink="http://www.w3.org/1999/xlink" width="16px" height="16px" viewBox="0 0 16 16" version="1.1">
<g id="surface1">
<path style=" stroke:none;fill-rule:nonzero;fill:rgb(0%,0%,0%);fill-opacity:1;" d="M 13.71875 8.179688 C 13.71875 12.601562 11.449219 15.75 8.09375 15.75 C 4.878906 15.75 2.28125 12.289062 2.28125 8 C 2.28125 3.710938 4.878906 0.25 8.09375 0.25 C 9.660156 0.25 10.976562 1.015625 11.992188 2.277344 L 10.410156 4.304688 C 8.339844 1.644531 4.492188 3.644531 4.492188 8 C 4.492188 10.703125 6.109375 12.894531 8.09375 12.894531 C 10.394531 12.894531 11.257812 10.695312 11.394531 9.554688 L 8.09375 9.554688 L 8.09375 6.886719 L 13.628906 6.886719 C 13.679688 7.285156 13.71875 7.664062 13.71875 8.179688 Z M 13.71875 8.179688 "/>
</g>
</svg>
