<?xml version="1.0" encoding="UTF-8"?>
<svg xmlns="http://www.w3.org/2000/svg" xmlns:xlink="http://www.w3.org/1999/xlink" width="15px" height="16px" viewBox="0 0 15 16" version="1.1">
<g id="surface1">
<path style=" stroke:none;fill-rule:nonzero;fill:rgb(0%,0%,0%);fill-opacity:1;" d="M 4.78125 14 L 2.742188 14 L 2.742188 4.652344 L 4.78125 4.652344 Z M 3.761719 3.378906 C 3.109375 3.378906 2.578125 2.609375 2.578125 1.679688 C 2.578125 0.753906 3.105469 0 3.761719 0 C 4.414062 0 4.941406 0.753906 4.941406 1.679688 C 4.941406 2.609375 4.414062 3.378906 3.761719 3.378906 Z M 12.417969 14 L 10.382812 14 L 10.382812 9.449219 C 10.382812 8.367188 10.367188 6.976562 9.320312 6.976562 C 8.261719 6.976562 8.097656 8.152344 8.097656 9.371094 L 8.097656 14 L 6.058594 14 L 6.058594 4.652344 L 8.015625 4.652344 L 8.015625 5.929688 L 8.046875 5.929688 C 8.316406 5.195312 8.984375 4.417969 9.976562 4.417969 C 12.042969 4.417969 12.421875 6.351562 12.421875 8.867188 L 12.421875 14 Z M 12.417969 14 "/>
</g>
</svg>
