<?xml version="1.0" encoding="UTF-8"?>
<svg xmlns="http://www.w3.org/2000/svg" xmlns:xlink="http://www.w3.org/1999/xlink" width="13px" height="16px" viewBox="0 0 13 16" version="1.1">
<g id="surface1">
<path style=" stroke:none;fill-rule:nonzero;fill:rgb(0%,0%,0%);fill-opacity:1;" d="M 6.730469 0.203125 C 4.773438 0.203125 2.84375 2.339844 2.84375 5.800781 C 2.84375 8 3.597656 9.25 4.054688 9.25 C 4.242188 9.25 4.351562 8.386719 4.351562 8.144531 C 4.351562 7.851562 3.902344 7.234375 3.902344 6.023438 C 3.902344 3.511719 5.066406 1.730469 6.574219 1.730469 C 7.871094 1.730469 8.832031 2.941406 8.832031 5.164062 C 8.832031 6.820312 8.425781 9.933594 7.109375 9.933594 C 6.636719 9.933594 6.230469 9.371094 6.230469 8.566406 C 6.230469 7.382812 6.734375 6.242188 6.734375 5.023438 C 6.734375 2.953125 4.945312 3.328125 4.945312 5.828125 C 4.945312 6.351562 4.984375 6.933594 5.128906 7.414062 C 4.867188 9.269531 4.328125 12.035156 4.328125 13.945312 C 4.328125 14.539062 4.378906 15.117188 4.414062 15.710938 C 4.480469 15.828125 4.445312 15.816406 4.546875 15.757812 C 5.507812 13.601562 5.472656 13.179688 5.90625 10.355469 C 6.140625 11.085938 6.746094 11.480469 7.226562 11.480469 C 9.246094 11.480469 10.15625 8.246094 10.15625 5.332031 C 10.15625 2.226562 8.523438 0.203125 6.730469 0.203125 Z M 6.730469 0.203125 "/>
</g>
</svg>
