<?xml version="1.0" encoding="UTF-8"?>
<svg xmlns="http://www.w3.org/2000/svg" xmlns:xlink="http://www.w3.org/1999/xlink" width="16px" height="14px" viewBox="0 0 16 14" version="1.1">
<g id="surface1">
<path style=" stroke:none;fill-rule:nonzero;fill:rgb(0%,0%,0%);fill-opacity:1;" d="M 12.765625 4.148438 C 12.773438 4.273438 12.773438 4.398438 12.773438 4.523438 C 12.773438 8.316406 10.300781 12.683594 5.777344 12.683594 C 4.382812 12.683594 3.089844 12.214844 2 11.398438 C 2.199219 11.425781 2.386719 11.433594 2.59375 11.433594 C 3.742188 11.433594 4.800781 10.980469 5.648438 10.207031 C 4.566406 10.179688 3.660156 9.355469 3.347656 8.21875 C 3.5 8.242188 3.652344 8.261719 3.8125 8.261719 C 4.03125 8.261719 4.253906 8.226562 4.460938 8.164062 C 3.332031 7.898438 2.488281 6.742188 2.488281 5.347656 L 2.488281 5.3125 C 2.816406 5.527344 3.195312 5.660156 3.597656 5.675781 C 2.9375 5.160156 2.503906 4.28125 2.503906 3.285156 C 2.503906 2.753906 2.625 2.265625 2.835938 1.839844 C 4.046875 3.578125 5.867188 4.71875 7.910156 4.839844 C 7.871094 4.628906 7.847656 4.40625 7.847656 4.183594 C 7.847656 2.601562 8.945312 1.316406 10.308594 1.316406 C 11.015625 1.316406 11.65625 1.660156 12.105469 2.222656 C 12.660156 2.097656 13.191406 1.855469 13.664062 1.527344 C 13.480469 2.195312 13.09375 2.753906 12.582031 3.109375 C 13.078125 3.046875 13.558594 2.886719 14 2.664062 C 13.664062 3.234375 13.246094 3.738281 12.765625 4.148438 Z M 12.765625 4.148438 "/>
</g>
</svg>
